<svg width="94.000000" height="21.000000" viewBox="0 0 94 21" fill="none" xmlns="http://www.w3.org/2000/svg" xmlns:xlink="http://www.w3.org/1999/xlink">
	<desc>
			Created with Pixso.
	</desc>
	<defs>
		<clipPath id="clip51_168">
			<rect width="94.000000" height="21.000000" fill="white" fill-opacity="0"/>
		</clipPath>
	</defs>
	<rect width="94.000000" height="21.000000" fill="#FFFFFF" fill-opacity="0"/>
	<g clip-path="url(#clip51_168)">
		<path d="M13.12 14.96C13.12 18.26 10.5 20.65 6.34 20.65C5.15 20.62 3.97 20.35 2.88 19.86C1.79 19.37 0.81 18.66 0 17.79L1.39 16.25C2.69 17.49 4.22 18.7 6.31 18.7C8.65 18.7 11.16 17.39 11.16 15.04C11.16 13.08 9.61 11.81 6.35 10.8C2.65 9.67 0.77 8.12 0.77 5.22C0.76 2.35 3.18 0 6.64 0C9.21 0 10.83 1.1 12.39 2.51L11.03 4.03C9.65 2.81 8.34 1.98 6.73 1.98C4.73 1.98 2.77 3.27 2.77 5.13C2.77 6.81 3.73 7.88 7.14 8.93C10.26 9.89 13.12 11.39 13.12 14.96L13.12 14.96ZM29.94 1.89C29.94 2.8 30.67 3.53 31.57 3.53C32.01 3.53 32.42 3.36 32.73 3.05C32.96 2.82 33.11 2.53 33.17 2.21C33.24 1.9 33.2 1.57 33.08 1.27C32.96 0.97 32.75 0.72 32.48 0.53C32.21 0.35 31.9 0.26 31.58 0.26C30.67 0.26 29.94 0.99 29.94 1.89L29.94 1.89ZM50.32 19.67C50.32 19.67 51.53 20.66 55.57 20.66L55.56 20.66C59.55 20.66 62.78 17.74 62.78 13.74C62.78 9.75 59.55 6.84 55.57 6.84C54.44 6.81 53.32 7.04 52.29 7.51L52.29 0.59L50.32 0.59L50.32 19.67ZM65.08 13.76C65.08 17.76 68.31 21 72.29 21C76.27 21 79.5 17.76 79.5 13.76C79.5 9.77 76.27 6.53 72.29 6.53C68.31 6.53 65.08 9.77 65.08 13.76ZM91.43 20.33L94 20.33L88.32 13.55L93.61 7.19L91.06 7.19L87.04 12.02L83 7.19L80.43 7.19L85.76 13.56L80.13 20.33L82.68 20.33L87.04 15.09L91.43 20.33ZM72.31 8.49C71.27 8.49 70.25 8.79 69.39 9.37C68.53 9.95 67.85 10.77 67.46 11.74C67.06 12.7 66.96 13.76 67.16 14.78C67.36 15.8 67.86 16.74 68.6 17.48C69.33 18.21 70.26 18.71 71.28 18.92C72.3 19.12 73.36 19.02 74.31 18.62C75.28 18.22 76.1 17.54 76.67 16.67C77.25 15.81 77.56 14.79 77.56 13.75C77.56 10.84 75.21 8.49 72.31 8.49L72.31 8.49ZM55.58 8.82C54.4 8.83 53.26 9.21 52.3 9.88L52.3 18.03C53.32 18.52 54.45 18.75 55.58 18.69C58.47 18.69 60.82 16.66 60.82 13.75C60.82 10.85 58.47 8.82 55.58 8.82L55.58 8.82L55.58 8.82ZM45.74 0.6L43.78 0.6L43.78 20.33L45.74 20.33L45.74 0.6ZM37.23 0.6L39.19 0.6L39.19 20.33L37.23 20.33L37.23 0.6ZM18.2 13.44L18.2 13.43L18.2 13.42L18.2 13.44ZM18.2 20.33L18.2 13.44L25.08 20.33L27.86 20.33L20.98 13.43L27.21 7.18L24.43 7.18L18.2 13.42L18.2 0.6L16.24 0.6L16.24 20.33L18.2 20.33L18.2 20.33ZM30.66 20.33L32.63 20.33L32.63 7.18L30.66 7.18L30.66 20.33Z" fill="#FFFFFF" fill-opacity="1.000000" fill-rule="evenodd"/>
	</g>
</svg>
